/* XPM */
static char *_ac48a7621b24b6ce9816ad4a0256701q6CCj7NmOHRaEHcn[] = {
/* columns rows colors chars-per-pixel */
"64 64 134 2 ",
"   c None",
".  c #0D0D0F",
"X  c #0F0F11",
"o  c #131315",
"O  c #161619",
"+  c #18171A",
"@  c #1A1A1C",
"#  c #1E1E21",
"$  c #201F23",
"%  c #222125",
"&  c #262529",
"*  c #28272C",
"=  c #2A2A2D",
"-  c #232534",
";  c #2D2C32",
":  c #2F3034",
">  c #2F3039",
",  c #323233",
"<  c #32333A",
"1  c #38373C",
"2  c #3A393B",
"3  c #766B2C",
"4  c #373841",
"5  c #3C3C40",
"6  c #414146",
"7  c #46464C",
"8  c #48494E",
"9  c #494955",
"0  c #56555C",
"q  c #58575E",
"w  c #64604F",
"e  c #65635E",
"r  c #7A7458",
"t  c #565661",
"y  c #5C5C64",
"u  c #605F64",
"i  c #616067",
"p  c #64646B",
"a  c #7B7663",
"s  c #666671",
"d  c #78777F",
"f  c #81742F",
"g  c #857D57",
"h  c #777782",
"j  c #7E7E86",
"k  c #7E7F8D",
"l  c #84838B",
"z  c #88878E",
"x  c #8A898F",
"c  c #858491",
"v  c #8B8B93",
"b  c #8F8E98",
"n  c #908F93",
"m  c #918F99",
"M  c #96959E",
"N  c #9797A1",
"B  c #9C9CA4",
"V  c #9E9DA9",
"C  c #A2A2AC",
"Z  c #A7A6B1",
"A  c #A8A7B1",
"S  c #AAAAB5",
"D  c #AEAEB9",
"F  c #B0AFBB",
"G  c #B3B2BD",
"H  c #B6B6C2",
"J  c #BABAC6",
"K  c #BEBECA",
"L  c #BFC0CC",
"P  c #C3C3CF",
"I  c #C2C2CE",
"U  c #C1C1CD",
"Y  c #C4C4CF",
"T  c #C1C1CD",
"R  c #C5C4D1",
"E  c #C5C5D2",
"W  c #C7C7D2",
"Q  c #C7C6D3",
"!  c #C7C7D3",
"~  c #C6C6D2",
"^  c #C8C7D4",
"/  c #C8C6D3",
"(  c #C8C8D5",
")  c #C9C9D5",
"_  c #CAC9D6",
"`  c #CACAD6",
"'  c #CBCAD6",
"]  c #CACAD7",
"[  c #CCCBD7",
"{  c #CAC9D6",
"}  c #CCCCD8",
"|  c #CCCCD9",
" . c #CECDD9",
".. c #CECED9",
"X. c #CECDDA",
"o. c #CFCEDA",
"O. c #CFCEDB",
"+. c #CECDDA",
"@. c #D0CEDB",
"#. c #D0CFDC",
"$. c #D0CFDD",
"%. c #D0D0DD",
"&. c #D1D0DD",
"*. c #D1D0DE",
"=. c #D1D1DE",
"-. c #D2D1DF",
";. c #D3D2DE",
":. c #D3D2DF",
">. c #D3D3DF",
",. c #D2D1DF",
"<. c #D4D3E0",
"1. c #D4D3E1",
"2. c #D4D4E1",
"3. c #D5D4E1",
"4. c #D5D4E2",
"5. c #D5D5E2",
"6. c #D6D5E2",
"7. c #D7D6E4",
"8. c #D7D7E4",
"9. c #D7D7E5",
"0. c #D5D5E2",
"q. c #D8D7E5",
"w. c #D8D7E5",
"e. c #D9D8E5",
"r. c #D9D8E6",
"t. c #DAD9E7",
"y. c #DBDAE7",
"u. c #DAD9E7",
"i. c #DBDAE8",
"p. c #DBDBE9",
"a. c #DCDBE8",
"s. c #DCDBE9",
"d. c #DDDBEA",
"f. c #DBDAE8",
/* pixels */
"                                                        # #       $ % &                                                         ",
"                                          % &       @ @ O     @ @ % %           @ @ %                                           ",
"                                        + % %   @ @ @ @ @ $ # # $ $     X X X o @ @ &                                           ",
"                                  O   o @ %   % @ @ O O @ % # @ O o X . X O @ % @ &                                             ",
"                                o o o o + # $ % & O . O @ @ @ O o O + + @ % * % $ $                                             ",
"                                o X . O @ # $ & @ o . O @ @ O @ @ @ @ $ * = & & &                                               ",
"                                o X o + # 4 q ; @ o O O O o o O @ % * ; ; * % &                                                 ",
"                            % % O o & 0 z K v % @ @ @ O o o O @ & ; : : * $ %                                                   ",
"                            # $ % q A %.i.6.u # @ O O o o @ # & * = ; & % @                                                     ",
"                            @ 7 v X.i.8.8.8.z & @ o O O @ @ @ & * & # + O           o o                                         ",
"                            v Z R i.] K R 9.N 1 # O O O o @ @ @ @ O o X o   @ @ o . X                                           ",
"                            J U 6.R D S L 6.K D M p 2 @ O # & O o o o o o o o X . .                                             ",
"                          C J L G v N H R 6.i.9.] 6.D 6 1 d M 6 o o O O o . . . .                                               ",
"                          v r w y M K ] 6.w.9.] G H ! D M C S 0 o o O o o o . o   #                                             ",
"                          e f 3 p I X.9.i.w.e.O.D K 6.p.>.V j & O + + + O O @ $ %                                               ",
"                          v g a D *.w.e.i.i.1.S D >.i.e...l 2 O @ @ @ @ @ $ & *                                                 ",
"                        #.<.] K #.w.9.i.r.O.Z H K <.e.e.R y , @ + @ O @ #                                                       ",
"                        V ] w.<.I I R K D s c 9.] e.e.R J v M 6 % @ X O #       J u                                             ",
"                          G 6.d.i.9.R v 4 - D ( R e.*.J L v } U D B b z l C Y G ] A                                             ",
"                          N J H C V k ; o k *.J 6.p.R G G l U U #.i.s.i.w.#.H H #.[ M                                           ",
"                          ; 4 , ; ; ; # t -.( ( i.i.K H A z I Q Q 9.r.i.9.K H *.e.X.G                                           ",
"                            2 , , : * > H d.4.9.e.i.L J *.2.R J ] #.i.r.*.H R e.e.] M                                           ",
"                            8 , , & > c f.9.f.f.e.8.H K *.i.X.H K ] <.i.O.K *.e.]                                               ",
"                            9 y h V K 9.9.*.f.9.} D H I ] e.6.Q I K X.w.X.K 6.W                                                 ",
"                            S G ] #.1.w.w.9.*.F B C K K I >.e.] R J R <.<.R X.B                                                 ",
"                              G 9.w.i.r.X./           K U X.e.X.] J I O.2.K B                                                   ",
"                              6.i.e.w.+.                      *.*.K K Q 6.H                                                     ",
"                            6.e.w.6.+.                            J K K C                                                       ",
"                              e.#.I                                 K J x                                                       ",
"                                                                                                                                ",
"                                                                                                                                ",
"                                                                                                                                ",
"                                                                                                                                ",
"                                                                                                                                ",
"                                                                                                                                ",
"                                                                                                                                ",
"                                                                                                                                ",
"                                                                                                                                ",
"                                                                                                                                ",
"                                                                                                                                ",
"                                                                                                                                ",
"                                                                                                                                ",
"                                                                                                                                ",
"                                                                                                                                ",
"                                                                                                                                ",
"                                                                                                                                ",
"                                                                                                                                ",
"                                                                                                                                ",
"                                                                                                                                ",
"                                                                                                                                ",
"                                                                                                                                ",
"                                                                                                                                ",
"                                                                                                                                ",
"                                                                                                                                ",
"                                                                                                                                ",
"                                                                                                                                ",
"                                                                                                                                ",
"                                                                                                                                ",
"                                                                                                                                ",
"                                                                                                                                ",
"                                                                                                                                ",
"                                                                                                                                ",
"                                                                                                                                ",
"                                                                                                                                "
};
