/* XPM */
static char *_6cfffa1e02e4582b64880eba8e08f1dK2bCUQ9YpUDeMdNx[] = {
/* columns rows colors chars-per-pixel */
"64 64 134 2 ",
"   c None",
".  c #0D0D0F",
"X  c #0F0F11",
"o  c #131315",
"O  c #161619",
"+  c #18171A",
"@  c #1A1A1C",
"#  c #1E1E21",
"$  c #201F23",
"%  c #222125",
"&  c #262529",
"*  c #28272C",
"=  c #2A2A2D",
"-  c #232534",
";  c #2D2C32",
":  c #2F3034",
">  c #2F3039",
",  c #323233",
"<  c #32333A",
"1  c #38373C",
"2  c #3A393B",
"3  c #766B2C",
"4  c #373841",
"5  c #3C3C40",
"6  c #414146",
"7  c #46464C",
"8  c #48494E",
"9  c #494955",
"0  c #56555C",
"q  c #58575E",
"w  c #64604F",
"e  c #65635E",
"r  c #7A7458",
"t  c #565661",
"y  c #5C5C64",
"u  c #605F64",
"i  c #616067",
"p  c #64646B",
"a  c #7B7663",
"s  c #666671",
"d  c #78777F",
"f  c #81742F",
"g  c #857D57",
"h  c #777782",
"j  c #7E7E86",
"k  c #7E7F8D",
"l  c #84838B",
"z  c #88878E",
"x  c #8A898F",
"c  c #858491",
"v  c #8B8B93",
"b  c #8F8E98",
"n  c #908F93",
"m  c #918F99",
"M  c #96959E",
"N  c #9797A1",
"B  c #9C9CA4",
"V  c #9E9DA9",
"C  c #A2A2AC",
"Z  c #A7A6B1",
"A  c #A8A7B1",
"S  c #AAAAB5",
"D  c #AEAEB9",
"F  c #B0AFBB",
"G  c #B3B2BD",
"H  c #B6B6C2",
"J  c #BABAC6",
"K  c #BEBECA",
"L  c #BFC0CC",
"P  c #C3C3CF",
"I  c #C2C2CE",
"U  c #C1C1CD",
"Y  c #C4C4CF",
"T  c #C1C1CD",
"R  c #C5C4D1",
"E  c #C5C5D2",
"W  c #C7C7D2",
"Q  c #C7C6D3",
"!  c #C7C7D3",
"~  c #C6C6D2",
"^  c #C8C7D4",
"/  c #C8C6D3",
"(  c #C8C8D5",
")  c #C9C9D5",
"_  c #CAC9D6",
"`  c #CACAD6",
"'  c #CBCAD6",
"]  c #CACAD7",
"[  c #CCCBD7",
"{  c #CAC9D6",
"}  c #CCCCD8",
"|  c #CCCCD9",
" . c #CECDD9",
".. c #CECED9",
"X. c #CECDDA",
"o. c #CFCEDA",
"O. c #CFCEDB",
"+. c #CECDDA",
"@. c #D0CEDB",
"#. c #D0CFDC",
"$. c #D0CFDD",
"%. c #D0D0DD",
"&. c #D1D0DD",
"*. c #D1D0DE",
"=. c #D1D1DE",
"-. c #D2D1DF",
";. c #D3D2DE",
":. c #D3D2DF",
">. c #D3D3DF",
",. c #D2D1DF",
"<. c #D4D3E0",
"1. c #D4D3E1",
"2. c #D4D4E1",
"3. c #D5D4E1",
"4. c #D5D4E2",
"5. c #D5D5E2",
"6. c #D6D5E2",
"7. c #D7D6E4",
"8. c #D7D7E4",
"9. c #D7D7E5",
"0. c #D5D5E2",
"q. c #D8D7E5",
"w. c #D8D7E5",
"e. c #D9D8E5",
"r. c #D9D8E6",
"t. c #DAD9E7",
"y. c #DBDAE7",
"u. c #DAD9E7",
"i. c #DBDAE8",
"p. c #DBDBE9",
"a. c #DCDBE8",
"s. c #DCDBE9",
"d. c #DDDBEA",
"f. c #DBDAE8",
/* pixels */
"                                                        & % $       # @                                                         ",
"                                          % @ +           % $ @ @     + @ @       & %                                           ",
"                                          & @ + o . X X     # $ $ $ $ @ + @ @ $   & % +                                         ",
"                                            & @ % @ O o X X o + @ $ $ @ O O # @ $   % + O   O                                   ",
"                                            % # % * % @ @ O O o O @ # @ o X O % % % # + o O o X                                 ",
"                                              & & & = * % @ @ + O O + @ + X X # & % # @ o . X o                                 ",
"                                                & % & ; ; * % @ O o o o + O o + = q 1 # + o o o                                 ",
"                                                  % % & : : ; & # @ o o O @ + @ % v K z 0 & o O % %                             ",
"                                                    @ $ & ; = * & # + o o O + + @ i 6.f.%.Z 0 % $ #                             ",
"                                        o o           O + # & * & @ @ @ O O o + & x 9.9.e.f...v 7 @                             ",
"                                          o . o @ @   o X o O + # @ O O O + O @ 1 M 9.Q L { f.Q Z v                             ",
"                                            . . X o o o o o o o O & $ O @ 1 p M F K ;.L D S ! 1.U J                             ",
"                                              . . . X o o + o o 6 M d 2 6 D 8...6.p.6.Q H N v G K J C                           ",
"                                            $   o . o o O O o o 0 S C M D W H G { 9.9.6.( J N y w r v                           ",
"                                              % % @ O O + + O O & j B ;.y.>.L D %.e.e.f.9...I p 3 f e                           ",
"                                                & & % @ @ @ @ @ + 5 l ..y.y.;.D A 6.f.f.f.e.+.D a g n                           ",
"                                                      # @ + + + @ , y Y q.f.1.J J C $.9.e.e.q...K { %.#.                        ",
"                                            u J       # O o @ & 6 M v J R f.q.^ 9.c s D K I I I 1.9.[ V                         ",
"                                            A { G Y V l l b B S K ..v K J #.q.^ ( H - > v I 9.f.d.1.G                           ",
"                                          M [ %.H H %.q.f.d.d.#.Y U l G H R f.-.H | k # ; k C C H J B                           ",
"                                          G  .e.%.H K 9.e.f.6.Q Q I z A H K f.f.E ( *.t # ; : = : 4 ;                           ",
"                                          M W e.9.R H 1.f.f.%.{ J R >.%.K K f.f.9.9.f.J < & , , 2 2                             ",
"                                               .f.%.K +.e.2.^ K H ..f.%.K H 7.f.f.f.9.f.c > & , : 7                             ",
"                                                Q 1.K +.f...I K ^ 6.e.{ I H D _ 9.f.*.9.7.K V h y 9                             ",
"                                                B ..I ;.%.Q J Q ] q.1.R I J C B F %.q.q.e.1.#.{ D D                             ",
"                                                  B L 6...I J { } f...K K           / ..q.f.q.9.G                               ",
"                                                    H 6.{ K K %.1.                      ..q.f.f.6.                              ",
"                                                      C K K J                             } 6.e.e.1.                            ",
"                                                      x J K                                 I #.e.                              ",
"                                                                                                                                ",
"                                                                                                                                ",
"                                                                                                                                ",
"                                                                                                                                ",
"                                                                                                                                ",
"                                                                                                                                ",
"                                                                                                                                ",
"                                                                                                                                ",
"                                                                                                                                ",
"                                                                                                                                ",
"                                                                                                                                ",
"                                                                                                                                ",
"                                                                                                                                ",
"                                                                                                                                ",
"                                                                                                                                ",
"                                                                                                                                ",
"                                                                                                                                ",
"                                                                                                                                ",
"                                                                                                                                ",
"                                                                                                                                ",
"                                                                                                                                ",
"                                                                                                                                ",
"                                                                                                                                ",
"                                                                                                                                ",
"                                                                                                                                ",
"                                                                                                                                ",
"                                                                                                                                ",
"                                                                                                                                ",
"                                                                                                                                ",
"                                                                                                                                ",
"                                                                                                                                ",
"                                                                                                                                ",
"                                                                                                                                ",
"                                                                                                                                ",
"                                                                                                                                "
};
