/* XPM */
static char *d3500c40fda449f6f2cb5486ced737c2VllNkaCdkBvg6gtO[] = {
/* columns rows colors chars-per-pixel */
"64 64 190 2 ",
"   c None",
".  c #16120A",
"X  c #1B150D",
"o  c #1C180F",
"O  c #1C1711",
"+  c #1E1913",
"@  c #1F1D19",
"#  c #21160F",
"$  c #29180F",
"%  c #221711",
"&  c #221B15",
"*  c #2B1B16",
"=  c #231E1A",
"-  c #291E1A",
";  c #321812",
":  c #24211C",
">  c #29231E",
",  c #252423",
"<  c #2A2523",
"1  c #2C2925",
"2  c #28262C",
"3  c #262829",
"4  c #2B2B2B",
"5  c #272529",
"6  c #312B27",
"7  c #322C2B",
"8  c #392725",
"9  c #35312E",
"0  c #38332E",
"q  c #2D2C32",
"w  c #2C2C3B",
"e  c #272732",
"r  c #322E31",
"t  c #382F38",
"y  c #2E3133",
"u  c #2F323B",
"i  c #343334",
"p  c #3A3333",
"a  c #3C3836",
"s  c #33353A",
"d  c #34393D",
"f  c #3B393C",
"g  c #3C3538",
"h  c #562C3C",
"j  c #433C3B",
"k  c #403433",
"l  c #4B423E",
"z  c #2B2E40",
"x  c #3A2D49",
"c  c #2E334C",
"v  c #363B42",
"b  c #3B3D44",
"n  c #393E49",
"m  c #383847",
"M  c #2E3A5D",
"N  c #323C59",
"B  c #323B53",
"V  c #313E64",
"C  c #413D41",
"Z  c #403F4F",
"A  c #3D4446",
"S  c #3B434C",
"D  c #374049",
"F  c #3B4653",
"G  c #3D4954",
"H  c #3D4A58",
"J  c #334163",
"K  c #3C4462",
"L  c #3B496D",
"P  c #304068",
"I  c #364975",
"U  c #3C4B74",
"Y  c #374A78",
"T  c #434245",
"R  c #4B4443",
"E  c #41464C",
"W  c #4D4A4D",
"Q  c #49484B",
"!  c #504B4B",
"~  c #444752",
"^  c #434B54",
"/  c #434D5B",
"(  c #4C4D58",
")  c #534C5A",
"_  c #4C5154",
"`  c #44515C",
"'  c #4B515C",
"]  c #535254",
"[  c #5A5454",
"{  c #565459",
"}  c #595C5C",
"|  c #605659",
" . c #424B68",
".. c #514D6C",
"X. c #465262",
"o. c #4A5462",
"O. c #4E5A65",
"+. c #4D5B6B",
"@. c #49586B",
"#. c #535B63",
"$. c #535D6B",
"%. c #585964",
"&. c #4C4872",
"*. c #5E497B",
"=. c #47557C",
"-. c #545F71",
";. c #595C73",
":. c #635E61",
">. c #6C5E75",
",. c #5B646D",
"<. c #586366",
"1. c #4E6275",
"2. c #4E6378",
"3. c #546274",
"4. c #596072",
"5. c #556579",
"6. c #5C647A",
"7. c #56697E",
"8. c #5C6B7C",
"9. c #64646B",
"0. c #6A676D",
"q. c #6C6D7D",
"w. c #676B72",
"e. c #697A7D",
"r. c #75787D",
"t. c #AC553F",
"y. c #BA6F58",
"u. c #80797D",
"i. c #AF7E7C",
"p. c #C3715E",
"a. c #576887",
"s. c #6C7382",
"d. c #64768C",
"f. c #7B7D85",
"g. c #767982",
"h. c #6E7B99",
"j. c #7B70A6",
"k. c #817F87",
"l. c #788A8A",
"z. c #7B918D",
"x. c #6C8494",
"c. c #7C8696",
"v. c #7C8997",
"b. c #84838B",
"n. c #8B898E",
"m. c #8B8B90",
"M. c #8A8C98",
"N. c #9F8A98",
"B. c #899497",
"V. c #929498",
"C. c #B08B91",
"Z. c #8B94A5",
"A. c #999AA1",
"S. c #9797A1",
"D. c #AC9DA6",
"F. c #98A3AA",
"G. c #A3A4AB",
"H. c #AAA5A9",
"J. c #BBA6AE",
"K. c #AAABB4",
"L. c #A5A7B2",
"P. c #B2AAB3",
"I. c #AFBABA",
"U. c #B3BABD",
"Y. c #CAA6A9",
"T. c #D4B6B2",
"R. c #E4C1B3",
"E. c #AABBCE",
"W. c #B9BBC4",
"Q. c #A6BFD1",
"!. c #BDBAD8",
"~. c #C1BEC7",
"^. c #D0BAC1",
"/. c #BBC1C8",
"(. c #BACBDB",
"). c #B9D3D7",
"_. c #C3C6CB",
"`. c #D3C3CE",
"'. c #C9CCD3",
"]. c #C5C9D3",
"[. c #D9CDD5",
"{. c #CDD0D9",
"}. c #D8D7D8",
"|. c #CEDDE5",
" X c #DBDEE3",
".X c #D7DBE2",
"XX c #DDE2EA",
"oX c #E1E5EC",
"OX c #E1E8EF",
"+X c #EAF0F7",
/* pixels */
"                                                                                                                                ",
"                                                                                                                                ",
"                                                            K       <                                                           ",
"                                                      K c a.J e 2 2 e                                                           ",
"                                                  6.=.U L =.V w w w r = &                                                       ",
"                                                h. .U Y Y I V c w 7 > - & &                                                     ",
"                        * & = = = = & +         a.N N V Y I V c 7 > & & o & &                                                   ",
"                        o % o & + & + @ & + O / =.B e n L V M e - & X o o + +       + + +   & & :                               ",
"                      - & + & & & : o o o o X 5 N z W W.D. .z C f.~ > # O + O X X X X X o + + : 1 1                             ",
"                  1 & + # + + + & o o o o o & 1 z T W.+XOX_.n.'.XXk.7 O O + + . . . . X o o + + + @ + o                         ",
"                  > 0 0 > : & & : o o o : [ r.b.0.:.D.^.[. XOX X^.N.t 5 g i i r i + X . o o + & : : + o X X X                   ",
"                  7 1 > > > > : o : & & W K.{.W.A.m.C.t.y.J.~.Y.p.t.h Z %.@.;.s.q.f + . . . . . X : , :                         ",
"                :     6 6 6 > 6 > + + : j m.'.'.K.k.D.Y.T.P.W.J.R.k.w.h.x.d.v.Z.0.< O X X O X X o o + : :                       ",
"              o     :   6 6 a 6 + & : > & p m.XX].V.k.M.K.H.U.G.~.>.x.{.|.(./.c.b O X + X X & + X : : o & =                     ",
"                  :       6 9 o & o > : + > C H. XOXW.G.:.R l j k n d.E.(.E.Z.%.1 X X & : o X : : . o :   o :                   ",
"                        1 1 > @ o & > + > 1 m / g.A.S.k.V.u.[ j t W s.h.v.s.( , O X # % : > + X & : o o                         ",
"                      r { b i = O & =       r o.3.4.( C ] H._.b.i f Q a 9 > : o & & + o + + & + X # : 0                         ",
"                      o.+.s , O X #           4 S o.#.S y 4 0 , X o X X X + : 3 1 + . . . . X . . . . D /                       ",
"                    ^ @.F e .                     : 5 5 : + . . . . . + @ , , @ X .             . . . , H /                     ",
"                    $.X.5 =                         5 + o X X X X X X X . . + +                   . . . 3 X.                    ",
"                  q.5.+.r O                           b : o o + + O o # X & s                       X + 4 / 5.                  ",
"              4.a.o.i , =                             S + o o o o o o o X :                           o @ , X.3.                ",
"              $.S @ X o                             o.v X X . X . X . X @ 4 5                         . . X + s o.              ",
"            o.+.n 4 +                           i X.@.H y + X X O @ 5 s S 4 @ / D                         . . 3 F @.X.          ",
"            o./ F b ,                         k { ,.y q y q + + : 4 q 4 @ @ v F n f                       X X + v F H           ",
"            o.v ^ S :                         0.n.r.i = & @ 4 i 1 @ O O , y i 4 7 1 6                       X @ 5 @ u           ",
"            g i o.5 + %                     ] B.U.%., 8 8 ] B.W.e.y < 6 7 7 i 1 : 1 -                     O + + X @ 5           ",
"                3.$.s &                 > 1 9 ] } q < 6 4 ( #.f._ < 4 4 6 2 j Q @ O X +                   O X X O v             ",
"                $.7.~ &               - > & = W p & > - , 5 , t - < < = < - < : X X X # =                 o X X = /             ",
"                  +./ -             - = + & 9 f + + - & , - @ X = < 1 p 7 > X X o X o 1 x *.                X @ n X.            ",
"                  f ^ =           8 k > - Q i X X & & = > = X X + < & = 7 f , + = X 6 ) &.j.!.              o , S               ",
"                    o.= %         | W 1 : + X X . = & + - O . X O - & X + : + = , = 6 e x ..&.;.            X 3 @.              ",
"                    3.D =         & , q = X . X . & + % & X X X . = = X o = o X X O : 6 p 7 2 s             X = /               ",
"                    3.3.r         , D v . . X X X & % & - X X X # - -   o & % X X o . % = - = 5 T           O @ ^               ",
"                    <.o.4 &       s S 2 O . X X     #   * #       * &     & o X . . + 5 : O + : 7 8         X : /               ",
"                    /.r.i -     C b 5 = X X o           $         ;       %     O O + i S z , + 6         O + y +.              ",
"                  }. XF.#.,.] ' 3.o.4 : %                                       % o o = F +.`             O 5 H 3.              ",
"                  V.g.Q a p 9 o.5.D X X                                           o X % 4 / 1.          b , 7 ( o.              ",
"                    p y y D y y 4 & o o                                             O O + u 1.+.        > , 0 f ^               ",
"                      o.5.7.+.d = o o                                                 O + : / 3.      & * & & 4 o.              ",
"                      3.7.3.G d D < o                                                   + + : A O.  o > 0 : o y o.              ",
"                    O.5.5.~ + X : , #                                                     + & = d f > ` Q : : : d               ",
"                    1.@.5.S & : + @ X                                                     + @ i ^ 1 >     + > y i               ",
"                  <.5.O.,.i   E ^ ~ @ X                                                   + + & 1 :       o y ^ u +.            ",
"                  w.B.l.z.^     5.3.y X #                                               % + : , 4 :       : O.e.F.c.            ",
"                    } <.T E     A O.y X o                                               o O @ S +.        3 G A B.              ",
"                      p 1 < 4 o   ( S : & #                                             X o O H 1.      + y > : S               ",
"                          , # $     ' ^ : #                                             o o + F 1.    o + : , s                 ",
"                                      , @ =                                             + o d 2.                                ",
"                                      a / 1 #                                           X + G 2.                                ",
"                                        O., o                                           + 3 S                                   ",
"                                        / = o                                           o , /                                   ",
"                                        O.s X +                                         + : S                                   ",
"                                          S + X                                         + D X.                                  ",
"                                          ` 4 = +                                     + + F X.                                  ",
"                                          d s i +                                     : 4 D `                                   ",
"                                        ^ v E 4                                       y s F                                     ",
"                                        4 + ,                                         2 s :                                     ",
"                                      i O O o                                         + y :                                     ",
"                                      4 . O o                                           + + 4                                   ",
"                                    o.4 o o                                             + X v                                   ",
"                                    ^ & X                                                 X d                                   ",
"                                                                                            5                                   ",
"                                                                                                                                "
};
