/* XPM */
static char *_1067ab6c2954f75a4b9d5ad22b66838rddft6UDeplWTWiQ[] = {
/* columns rows colors chars-per-pixel */
"16 16 2 1 ",
"  c #422835",
". c #523A42",
/* pixels */
"................",
".              .",
".              .",
".              .",
".              .",
".              .",
".              .",
".              .",
".              .",
".              .",
".              .",
".              .",
".              .",
".              .",
".              .",
"................"
};
