/* XPM */
static char *d568700955a34303bfb4a7efd6d653f2UfBiez4oo3heW1J8[] = {
/* columns rows colors chars-per-pixel */
"64 64 224 2 ",
"   c None",
".  c #040405",
"X  c #151718",
"o  c #2F1814",
"O  c #333213",
"+  c #1D1F21",
"@  c #1E2123",
"#  c #25282A",
"$  c #292F31",
"%  c #272D30",
"&  c #2B3133",
"*  c #2E3539",
"=  c #32393C",
"-  c #383639",
";  c #382E31",
":  c #5C0302",
">  c #5B1718",
",  c #4D180D",
"<  c #680404",
"1  c #730101",
"2  c #7C0202",
"3  c #790B0C",
"4  c #691516",
"5  c #7A1313",
"6  c #6E100E",
"7  c #502919",
"8  c #6F261B",
"9  c #572628",
"0  c #453538",
"q  c #522E30",
"w  c #773737",
"e  c #6D2C29",
"r  c #1C5822",
"t  c #2E5F2C",
"y  c #1F6327",
"u  c #226A2A",
"i  c #24742D",
"p  c #267B2F",
"a  c #267B31",
"s  c #277D32",
"d  c #396E2F",
"f  c #26461B",
"g  c #7D583C",
"h  c #363E41",
"j  c #383E41",
"k  c #703F41",
"l  c #5B3E41",
"z  c #3A4145",
"x  c #3D454A",
"c  c #3F484D",
"v  c #414A4E",
"b  c #47474A",
"n  c #434D51",
"m  c #475156",
"M  c #4B5255",
"N  c #4B555A",
"B  c #4E595E",
"V  c #55595B",
"C  c #5A4A4D",
"Z  c #6C4445",
"A  c #6D5855",
"S  c #4F5B60",
"D  c #525E64",
"F  c #546166",
"G  c #5A666C",
"H  c #5B686E",
"J  c #596367",
"K  c #5E6C72",
"L  c #646969",
"P  c #636D73",
"I  c #696E70",
"U  c #65747B",
"Y  c #6B767C",
"T  c #69757A",
"R  c #777376",
"E  c #68665F",
"W  c #820101",
"Q  c #8B0000",
"!  c #8A0B0C",
"~  c #930000",
"^  c #9C0606",
"/  c #9D0B0B",
"(  c #871819",
")  c #951718",
"_  c #A30B0B",
"`  c #AA0D0D",
"'  c #AA1212",
"]  c #B51515",
"[  c #BA1A1A",
"{  c #BC090A",
"}  c #982324",
"|  c #8E312F",
" . c #A32D2D",
".. c #C61A1A",
"X. c #DA1C1C",
"o. c #D10909",
"O. c #FF0000",
"+. c #FF0B0B",
"@. c #F60000",
"#. c #E51616",
"$. c #FE1313",
"%. c #FF1B1B",
"&. c #F31818",
"*. c #CA2323",
"=. c #DA2B2B",
"-. c #D43737",
";. c #E62727",
":. c #FE2323",
">. c #FE2C2C",
",. c #F52727",
"<. c #E23232",
"1. c #EA3A3A",
"2. c #FF3434",
"3. c #F33C3C",
"4. c #FE3B3B",
"5. c #D57832",
"6. c #8A5352",
"7. c #8E6A48",
"8. c #A87A5D",
"9. c #8E746B",
"0. c #B06869",
"q. c #B54848",
"w. c #D94949",
"e. c #CB5C5C",
"r. c #D25454",
"t. c #E64343",
"y. c #FF4343",
"u. c #FE4C4C",
"i. c #F34343",
"p. c #FE5555",
"a. c #FB5B5B",
"s. c #C96868",
"d. c #CA7979",
"f. c #D67474",
"g. c #FE6464",
"h. c #FE6A6A",
"j. c #F76465",
"k. c #FE7A7A",
"l. c #EC7474",
"z. c #C77F56",
"x. c #298334",
"c. c #2C8D39",
"v. c #2B8937",
"b. c #2E943B",
"n. c #2F9B3E",
"m. c #309B3E",
"M. c #318B3D",
"N. c #339D41",
"B. c #33A342",
"V. c #36AB45",
"C. c #39A947",
"Z. c #37B148",
"A. c #38B449",
"S. c #3BB94C",
"D. c #4E9657",
"F. c #45BC54",
"G. c #40B04D",
"H. c #70AA76",
"J. c #5DAF66",
"K. c #4DC35A",
"L. c #5DCA66",
"P. c #64C96B",
"I. c #65D56D",
"U. c #6CC872",
"Y. c #72C976",
"T. c #B89036",
"R. c #C6A02A",
"E. c #A78B51",
"W. c #A5836E",
"Q. c #A49655",
"!. c #D08F72",
"~. c #D29E43",
"^. c #6C7C82",
"/. c #737E83",
"(. c #7A7E81",
"). c #6F8188",
"_. c #77858B",
"`. c #7B8D94",
"'. c #778990",
"]. c #7E9490",
"[. c #7FBF83",
"{. c #83898D",
"}. c #898788",
"|. c #838C93",
" X c #83959C",
".X c #8C9396",
"XX c #94989A",
"oX c #989288",
"OX c #A6928C",
"+X c #89B78C",
"@X c #B0A886",
"#X c #8B9CA3",
"$X c #969FA2",
"%X c #8CA1AA",
"&X c #9AA3A9",
"*X c #94AAB3",
"=X c #98AFB7",
"-X c #9CB3BC",
";X c #A5A9AB",
":X c #A5ABB3",
">X c #ADB2B5",
",X c #B3B5B7",
"<X c #B3AAA5",
"1X c #C68B88",
"2X c #FE8A8A",
"3X c #F49191",
"4X c #C6BAB7",
"5X c #FEA9A9",
"6X c #9BC19D",
"7X c #CAC9BE",
"8X c #9FB7C0",
"9X c #A0B9C2",
"0X c #B4BCC8",
"qX c #BFC5D0",
"wX c #C9CACA",
"eX c #DCDDDD",
"rX c #D5D5D5",
"tX c #CDD1D7",
"yX c #F5CCCC",
"uX c #DFE0E1",
"iX c #EBEBEC",
"pX c #E3E3E4",
"aX c #F3F2F2",
"sX c #EDEEF0",
/* pixels */
"                                                                                                                                ",
"                                                                                                                                ",
"                                                                                                                                ",
"                                                                                                                                ",
"                                          OX                                                                                    ",
"                                          W.W.9.          +XY.P.P.L.P.J.H.                                                      ",
"                                          W.W.8.      Y.I.L.F.A.S.B.V.S.F.P.+X                                                  ",
"                                          W.E.    +XY.L.B.A.x.B.V.p V.m.n.K.K.D.                                                ",
"                                          8.Q.  +XI.K.x.n.b.c.Z.a b.Z.a B.V.B.A.D.                                              ",
"                                          7.E W.U.Z.i i x.a B.x.c.Z.x.c.Z.a n.Z.A.D.                                            ",
"                                          g E ].N.s r i r u r r v.u a N.a b.B.x.Z.C.H.                                          ",
"                                          7.    D.C.c.n.N.i b.p i u r r y v.u n.B.v.C.                                          ",
"                                        @X7.      M.V.V.A.b.v.V.x.V.x.a i a r u r v.N.D.                                        ",
"                                        OXg   0.6.9 x.Z.A.V.x.A.x.B.V.a b.b.x.b.u i r c.J.                                      ",
"                          1Xd.s.s.    !.6.( o.<.<.-. .d n.V.b.Z.N.B.A.b.V.V.B.V.m.V.b.V.I.P.                                    ",
"                    d.f.3X    k.O.@.#.{ 8 8 ~ / ' ' ' 6 O u x.v.b.n.B.B.B.B.B.V.Z.A.F.I.Y.6X                                    ",
"                              3X+.4.u.6 , 7 : < : < 5 ( | 7 O f u u i p a i s A.K.L.P.+X                                        ",
"                      yX2Xa.4.$.O.4.  -.8 e ( } e.3Xa.t.f.0.! 1 : , , O O t D.H.6X6X                                            ",
"                    p.+.O.O.O.O.O.O.g.  j.j.2X2Xg.2.1.` Q ~ ~ ~ Q Q Q W 1 e                                                     ",
"                  $.O.O.O.O.O.O.O.O.+.2.h.h.y.$.O.$.=.~ ~ ~ ~ ^ ` ^ ~ ~ ~ 1 e                                                   ",
"                +.O.O.O.O.O.O.O.O.O.O.O.O.O.O.O.O.%.<.~ ~ ~ _ <.y.<.[ ~ ~ ~ 1 9.                    ).                          ",
"              :.O.O.O.O.O.O.O.O.O.O.O.O.O.O.O.O.O.+.2.' ~ ~ ] y.y.y.3.] ~ ~ Q <             {..X  XXK     XX                    ",
"            h.O.O.O.O.O.O.O.O.+.:.2.4.>.+.O.O.O.O.O.>.=.~ ~ ^ *.<.3.y.<.~ ~ ~ 1 6.      XX&X^.h Y %XF XX;X/.                    ",
"            %.O.O.O.O.O.O.O.O.>.y.y.y.y.a.4.O.O.O.O.$.4.] ~ ~ ~ ^ _ <.i.` ~ ~ Q 6 }.].XXT ).K N =X`.F N ^./.    >X{.            ",
"            O.O.O.O.O.O.O.O.+.4.y.y.y.4.    y.O.O.O.O.>.=.^ ~ ~ ~ ~ ` 4.] ~ ~ ~ 2 C '.b m '.B _.*XH D z S {.  XX`.              ",
"    s.    p.O.O.O.O.O.O.O.O.$.4.y.y.y.y.k.    >.O.O.O.$.3.` Q ~ ~ ~ ^ 1.] ~ ~ ~ Q q `.j & U N `.U D F = m (.U `.                ",
"    w.p.4.+.O.O.O.O.O.O.O.O.+.4.y.y.y.y.p.      $.O.O.+.2.*.~ ~ ~ ~ ~ [ / ~ ~ ~ Q Z ).v = F N K F F S z B H Y |.                ",
"    l.  u.O.O.O.O.O.O.O.O.O.+.2.y.y.y.y.u.      h.O.O.O.:.<.~ ~ ~ ~ ~ Q ~ ~ ~ ~ 3 q K B D D F F D F F S F D  X                  ",
"        a.O.O.O.O.O.O.O.O.O.O.>.y.y.y.y.y.        >.O.O.$.3._ ~ ~ ~ ~ ~ ~ ~ ~ ~ 3 - x m z B N B F S n B j F ).  /.              ",
"  s.    4.O.O.O.O.O.O.O.O.O.O.:.y.y.y.y.y.          +.O.O.2.[ ~ ~ ~ ~ ~ ~ ~ ~ ~ ! b % # # V z x N & = N x x N U _.              ",
"  r.2X2X+.O.O.O.O.O.O.O.O.O.O.:.y.y.y.y.y.          >.O.O.>.*.~ ~ ~ ~ ~ ~ ~ ~ ~ ( I z M ,XeX.Xb b b J J X & B D R Y             ",
"  w.4.%.O.O.O.O.O.O.O.O.O.O.O.:.y.y.y.y.y.          g.O.O.%.<.~ ~ ~ ~ ~ ~ ~ ~ ~ 9 H V ,XiXeXwX<XwXwXiXuXV * N v T &X            ",
"  t.y.%.O.O.O.O.O.O.O.O.O.O.O.>.y.y.y.y.y.            +.O.$.3.^ ~ ~ ~ ~ ~ ~ ~ Q C B }.8.!.tXrXeXrXrXwXeX;XB B /.|.              ",
"  t.y.%.O.O.O.O.O.O.O.O.O.O.O.>.y.y.y.y.p.            $.O.+.4.] ~ ~ ~ ~ ~ ~ ~ ! V W.!.5.T.=XwXwXuX0XOX4XqXh ^.%XP               ",
"  t.y.:.O.O.O.O.O.O.O.O.O.O.+.2.y.y.y.y.a.            >.O.+.4.[ ~ ~ ~ ~ ~ ~ ~ ~ q oXT.T.H.$X0X:X}.1X!.T.L v F |.J               ",
"  1.y.:.O.O.O.O.O.O.O.O.O.O.%.y.y.y.y.y.              4.O.O.2.*.~ ~ ~ ~ ~ ~ ~ Q 6.XXwX<XXX<X,X:X7.5.~.R.o |.G ^.                ",
"  t.y.>.O.O.O.O.O.O.O.O.O.O.>.y.y.y.y.y.              u.@.O.>.} Q ~ ~ ~ ~ ~ ~ ! 4X(.,XrX,XrXXX>X@X~.~.Q.H.>XI V   &X            ",
"  w.y.4.O.O.O.O.O.O.O.O.O.%.y.y.y.y.y.u.              w.o.+.>.w 6 ~ ~ ~ Q Q ~ } eX}.b wXaXiXrXeXsXrXwX0X;X>X&X.XV I .X      $X  ",
"  e.y.4.+.O.O.O.O.O.O.O.+.2.y.y.y.y.y.k.              i.) o.,. .9 ( ~ ~ 1 W ~ } rX(.@ /.eXaXaXaXwX{.J j XXiXqX#XH L L Y XX_.    ",
"    y.y.%.O.O.O.O.O.O.+.2.y.y.y.y.y.y.                >.o.e k ) 6.R W ~ 9 6 ~ ! <XI . & G 9..X}.n . @ (.iXuX&X X^.U U P '.;X    ",
"    1.y.>.O.O.O.O.O.+.>.y.y.y.y.y.y.k.                %.O...R A 4 q q 2 q 6 ~ 2 9.:Xh X + X @ X X @ XXpXiX}.). X'._.^. X#X      ",
"    e.y.4.+.O.O.O.+.2.y.y.y.y.y.y.p.                f.o.@.&. .0 0 q x > 0 5 ~ 1 OXpX,XV ; # . @ - |.sXaX,XT P `.%X`.*X.X        ",
"      3.y.%.O.O.O.>.y.y.y.y.y.4.u.                  -.( ( OXl 9 h c S x 0 W W > {.>XiXpX8X/.N P |.pXiX;Xz b F -X=X%XY _.        ",
"      r.y.2.+.O.$.4.y.y.y.y.4.g.                    $.@.=.9.9 j j N D S M k e 0 x n }.pXtX0X0X0X&X}.I $ @ x %X=X^.N .X          ",
"        1.y.%.O.$.y.y.y.y.a.3X                    >.O.+.=.5 9 - x S N m _.K D ^.^.K D $X,X:X:X^.$ = z v * F `.U U ).            ",
"        s.y.4.+.$.4.y.y.h.                      p.+.O.,.( > 4 4 9 > > 9 {.N P ^.B H D N I P P c + x h v z U ^.D %X-X#X>X:X&X    ",
"          t.y.>.+.4.4.u.yX                    h.+.O.%...Q ~ ~ ~ ~ ~ ~ ~ 5 o j M D D U ^.^.K G v & c c K ^.).P K H .X$X#X X      ",
"          d.y.4.:.2.y.p.                    g.+.@.+.X.~ ~ ~ ~ [ ] ~ ~ ~ W g     I n U *X9X=XU * & U  X*X%XK S `. X              ",
"            w.4.y.2.y.u.                  p.+.O.+.#.^ ~ ~ ~ _ 3.*.~ ~ Q 6       XXS S ^.8X#XF X N -X9X-X#XP )._.'.;X            ",
"              ;.4.y.y.4.k.            2X>.O.O.+.#.^ Q ~ ~ ~ [ t.' ~ ~ 2 w   XX^.c c F '.9X'.n . m *X*XU           {.            ",
"              e.&.2.4.y.y.h.5X    2X4.+.O.O.+.#._ ~ ~ ~ Q .. .} ^ ~ W : & v c m $ $ c '.`.H h . b                               ",
"                q.o.&.:.>.>.>.>.$.+.O.O.O.+.X.^ ~ ~ ~ ~ *.<.k b W Q < o = = c m h m m * h z & X                                 ",
"                  | _ #.+.+.O.O.O.O.O.+.&...^ ~ ~ ~ ~ ^ *./ 0 n 4 > 0 m m = % n c m G N n z % X                                 ",
"                    6.! [ ;.,.:.:.:.;.*.` ~ ~ ~ ~ ~ ~ ~ ~ 2 - c c m F F m z = & = c c N F c # @                                 ",
"                        | ( / ' ' ` ^ ~ ~ ~ ~ ~ ~ ~ Q 2 1 < ; n v x c N S B m z z z S H G # $                                   ",
"                              6.w 8 5 W Q Q Q Q 2 4 e Z E R 0 * z M V N B N c h * c m G c $ %                                   ",
"                                        A Z Z A                                   z & j # #                                     ",
"                                                                                                                                ",
"                                                                                                                                ",
"                                                                                                                                ",
"                                                                                                                                ",
"                                                                                                                                ",
"                                                                                                                                ",
"                                                                                                                                "
};
