/* XPM */
static char *result[] = {
/* columns rows colors chars-per-pixel */
"64 64 76 1 ",
"  c #020102",
". c #04060B",
"X c #08060A",
"o c #06080B",
"O c #0B0A0C",
"+ c #12070A",
"@ c #120A0C",
"# c #0A0C13",
"$ c #140F12",
"% c #1E0E11",
"& c #0E1116",
"* c #0E1218",
"= c #131116",
"- c #12161C",
"; c #19151C",
": c #15191F",
"> c #1A191F",
", c #20070B",
"< c #21090D",
"1 c #2E0C0E",
"2 c #310B0D",
"3 c #230D12",
"4 c #290E13",
"5 c #251117",
"6 c #2D1114",
"7 c #26141A",
"8 c #28161D",
"9 c #2A181E",
"0 c #3F1317",
"q c #3E141A",
"w c #3A191E",
"e c #151D24",
"r c #191E24",
"t c #161E28",
"y c #181E28",
"u c #2A1720",
"i c #211B23",
"p c #2B1A22",
"a c #201F28",
"s c #341B22",
"d c #152026",
"f c #1B2027",
"g c #162129",
"h c #19222C",
"j c #1B2532",
"k c #1B2834",
"l c #20222E",
"z c #47090B",
"x c #4B0B0D",
"c c #540205",
"v c #590203",
"b c #53090A",
"n c #5E090C",
"m c #460E13",
"M c #490E13",
"N c #540B10",
"B c #5C0F12",
"V c #441013",
"C c #4D1112",
"Z c #43171D",
"A c #640204",
"S c #6C0103",
"D c #670C0F",
"F c #6B0C0F",
"G c #740203",
"H c #780103",
"J c #640D12",
"K c #6A0C10",
"L c #710D11",
"P c #970307",
"I c #9B0306",
"U c #930408",
"Y c #A40305",
"T c #AD0304",
"R c #B10304",
"E c None",
/* pixels */
"EEEEEEEEEEEEEEEEEEEEEEEEEEEEEEEEEEEEEEEEEEEEEEEEEEEEEEEEEEEEEEEE",
"EEEEEEEEEEEEEEEEEEEEEEEEEEEEEEEEEEEEEEEEEEEEEEEEEEEEEEEEEEEEEEEE",
"EEEEEEEEEEEEEEEEEEEEEEEEEEEEEEEEEEEEEEEEEEEEEEEEEEEEEEEEEEEEEEEE",
"EEEEEEEEEEEEEEEEEEEEEEEEEEEEEEEEEEEEEEEEEEEEEEEEEEEEEEEEEEEEEEEE",
"EEEEEEEEEEEEEEEEEEEEEEEEEEEEEEEEEEEEEEEEEEEEEEEEEEEEEEEEEEEEEEEE",
"EEEEEEEEEEEEEEEEEEEEEEEEEEEEEEEEEEEEEEEEEEEEEEEEEEEEEEEEEEEEEEEE",
"EEEEEEEEEEEEEEEEEEEEEEEEEEEEEEEEEEEEEEEEEEEEEEEEEEEEEEEEEEEEEEEE",
"EEEEEEEEEEEEEEEEEEEEEEEEEEEEEEEEEEEEEEEEEEEEEEEEEEEEEEEEEEEEEEEE",
"EEEEEEEEEEEEEEEEEEEEEEEEEEEEEEEEEEEEEEEEEEEEEEEEEEEEEEEEEEEEEEEE",
"EEEEEEEEEEEEEEEEEEEEEENyyyyyhjllhge-##X   OJEEEEEEEEEEEEEEEEEEEE",
"EEEEEEEEEEEEEEEEEEEEEHnfi7778uuuiy7433,%,+OLREEEEEEEEEEEEEEEEEEE",
"EEEEEEEEEEEEEEEEEEEEEHxf9:;eeryryy--$$OXO4OJREEEEEEEEEEEEEEEEEEE",
"EEEEEEEEEEEEEEEEEEEEEHbfZrghhhkjtg*e*#. XM+BREEEEEEEEEEEEEEEEEEE",
"EEEEEEEEEEEEEEEEEEEEEHxlZrgghhjktge-*#.  M+BREEEEEEEEEEEEEEEEEEE",
"EEEEEEEEEEEEEEEEEEEEEHxfZfggfjjkthe-*#. XM+BREEEEEEEEEEEEEEEEEEE",
"EEEEEEEEEEEEEEEEEEEEEHbfZfggghjjtg--*#.  M+JREEEEEEEEEEEEEEEEEEE",
"EEEEEEEEEEEEEEEEEEEEEGxfZrggghjjtg:-*#. XM+BREEEEEEEEEEEEEEEEEEE",
"EEEEEEEEEEEEEEEEEEEEEGMfZfgghhjkdte-*#.  M+BREEEEEEEEEEEEEEEEEEE",
"EEEEEEEEEEEEEEEEEEEEEGxlZrthghkkdhe-*#. XM+BREEEEEEEEEEEEEEEEEEE",
"EEEEEEEEEEEEEEEEEEEEEGbfZygyhhhkghe**#.  M+BREEEEEEEEEEEEEEEEEEE",
"EEEEEEEEEEEEEEEEEEEEEGxhZyyhhhjkgge-*#. XM+BREEEEEEEEEEEEEEEEEEE",
"EEEEEEEEEEEEEEEEEEEEECZfZryyflllghe-$$O XM+BREEEEEEEEEEEEEEEEEEE",
"EEEEEEEEEEEEEEEEEEEEbfsfi;;rerrety-e;==$=%XJREEEEEEEEEEEEEEEEEEE",
"EEEEEEEEEEEEEEEEEEEAxfwdrrrrrrffyye*=$OXXXXKTEEEEEEEEEEEEEEEEEEE",
"EEEEEEEEEEEEEEEEEEEEEfsfr::ee>>eyh--=-$$$$XJTEEEEEEEEEEEEEEEEEEE",
"EEEEEEEEEEEEEEEEEEEEENVfZftyhhhktje-*#. .m@BREEEEEEEEEEEEEEEEEEE",
"EEEEEEEEEEEEEEEEEEEEEGMfZfgghhkktge-*#.  M@BTEEEEEEEEEEEEEEEEEEE",
"EEEEEEEEEEEEEEEEEEEEEGMfqrgghhjkgje-*#. Xm+BTEEEEEEEEEEEEEEEEEEE",
"EEEEEEEEEEEEEEEEEEEEESCfZdggghhkgje**#.  M+BREEEEEEEEEEEEEEEEEEE",
"EEEEEEEEEEEEEEEEEEEEESxfZfgghhkktgee*#. Xm+BREEEEEEEEEEEEEEEEEEE",
"EEEEEEEEEEEEEEEEEEEEEGMhqfdgghkkghe**#.  m+BTEEEEEEEEEEEEEEEEEEE",
"EEEEEEEEEEEEEEEEEEEEESxfZdgghhhkgje**#. Xm@BTEEEEEEEEEEEEEEEEEEE",
"EEEEEEEEEEEEEEEEEEEEESxfp:eeetttdh--**&o&6XBYEEEEEEEEEEEEEEEEEEE",
"EEEEEEEEEEEEEEEEEEEEESbfteeeetttghe--*&OO..KTEEEEEEEEEEEEEEEEEEE",
"EEEEEEEEEEEEEEEEEEEEESbreeghtjjjhte-*#.   XKYEEEEEEEEEEEEEEEEEEE",
"EEEEEEEEEEEEEEEEEEEEESb>ddggghjjhte-*#o   XFYEEEEEEEEEEEEEEEEEEE",
"EEEEEEEEEEEEEEEEEEEEESbreddghhkjhh>--=*&#$OnYEEEEEEEEEEEEEEEEEEE",
"EEEEEEEEEEEEEEEEEEEEEAbrddggghjkjj:--&#X$6+BYEEEEEEEEEEEEEEEEEEE",
"EEEEEEEEEEEEEEEEEEEEEAbedddghhjjhg>-;==$$OOJYEEEEEEEEEEEEEEEEEEE",
"EEEEEEEEEEEEEEEEEEEEEAbtddggghjjhg>-=OX   XFYEEEEEEEEEEEEEEEEEEE",
"EEEEEEEEEEEEEEEEEEEEEAbrddggghjjhg:-*#.   .FIEEEEEEEEEEEEEEEEEEE",
"EEEEEEEEEEEEEEEEEEEEEAbedddggjjjhdd-*#.   XFYEEEEEEEEEEEEEEEEEEE",
"EEEEEEEEEEEEEEEEEEEEEAbrddgggjkjgd:-*#.   XFYEEEEEEEEEEEEEEEEEEE",
"EEEEEEEEEEEEEEEEEEEEEAbeddgghhhkhdd-*#.   .FIEEEEEEEEEEEEEEEEEEE",
"EEEEEEEEEEEEEEEEEEEEExVrddggghjjhge-*#.   XFIEEEEEEEEEEEEEEEEEEE",
"EEEEEEEEEEEEEEEEEEEc2ywrdddgghjjhge**#.   XDIEEEEEEEEEEEEEEEEEEE",
"EEEEEEEEEEEEEEEEEEEc1dw>ddgghhjjhg::*#.   .DIEEEEEEEEEEEEEEEEEEE",
"EEEEEEEEEEEEEEEEEEEE2dweddddgjjjhge-*#.   XFIEEEEEEEEEEEEEEEEEEE",
"EEEEEEEEEEEEEEEEEEEEEmV>ddgghhkjgte-*#.   XDPEEEEEEEEEEEEEEEEEEE",
"EEEEEEEEEEEEEEEEEEEEEvxeddgghhjjhte:*#.   XDPEEEEEEEEEEEEEEEEEEE",
"EEEEEEEEEEEEEEEEEEEEEvz>ddggghjjhge**#.   XDPEEEEEEEEEEEEEEEEEEE",
"EEEEEEEEEEEEEEEEEEEEEvxrddggghjjgte**#.   OJPEEEEEEEEEEEEEEEEEEE",
"EEEEEEEEEEEEEEEEEEEEEvzrddggghjjhfe-*#.   .DIEEEEEEEEEEEEEEEEEEE",
"EEEEEEEEEEEEEEEEEEEEEczredgghhjjhge-*#.   XDUEEEEEEEEEEEEEEEEEEE",
"EEEEEEEEEEEEEEEEEEEEEEEEegggghjjgtEE*EEE  XEEEEEEEEEEEEEEEEEEEEE",
"EEEEEEEEEEEEEEEEEEEEEEEEEEEEEEEEEEEEEEEEEEEEEEEEEEEEEEEEEEEEEEEE",
"EEEEEEEEEEEEEEEEEEEEEEEEEEEEEEEEEEEEEEEEEEEEEEEEEEEEEEEEEEEEEEEE",
"EEEEEEEEEEEEEEEEEEEEEEEEEEEEEEEEEEEEEEEEEEEEEEEEEEEEEEEEEEEEEEEE",
"EEEEEEEEEEEEEEEEEEEEEEEEEEEEEEEEEEEEEEEEEEEEEEEEEEEEEEEEEEEEEEEE",
"EEEEEEEEEEEEEEEEEEEEEEEEEEEEEEEEEEEEEEEEEEEEEEEEEEEEEEEEEEEEEEEE",
"EEEEEEEEEEEEEEEEEEEEEEEEEEEEEEEEEEEEEEEEEEEEEEEEEEEEEEEEEEEEEEEE",
"EEEEEEEEEEEEEEEEEEEEEEEEEEEEEEEEEEEEEEEEEEEEEEEEEEEEEEEEEEEEEEEE",
"EEEEEEEEEEEEEEEEEEEEEEEEEEEEEEEEEEEEEEEEEEEEEEEEEEEEEEEEEEEEEEEE",
"EEEEEEEEEEEEEEEEEEEEEEEEEEEEEEEEEEEEEEEEEEEEEEEEEEEEEEEEEEEEEEEE"
};
