/* XPM */
static char *c21d3cd74db14be1dfc791f5c4c64065DJaIBxikKkgXAkyS[] = {
/* columns rows colors chars-per-pixel */
"64 64 109 2 ",
"   c None",
".  c #050405",
"X  c #070708",
"o  c #080709",
"O  c #0B0B0C",
"+  c #0F0E11",
"@  c #100F11",
"#  c #131214",
"$  c #171618",
"%  c #181719",
"&  c #1B1A1C",
"*  c #1E1E20",
"=  c #242325",
"-  c #272729",
";  c #282729",
":  c #2C2C2D",
">  c #2E2E30",
",  c #302F31",
"<  c #333335",
"1  c #363638",
"2  c #383739",
"3  c #3B3A3C",
"4  c #3F3F41",
"5  c #434344",
"6  c #474749",
"7  c #484748",
"8  c #4B4B4C",
"9  c #4F4E50",
"0  c #504F51",
"q  c #515152",
"w  c #525254",
"e  c #535354",
"r  c #535255",
"t  c #535355",
"y  c #545455",
"u  c #555455",
"i  c #555456",
"p  c #565556",
"a  c #565657",
"s  c #535355",
"d  c #565658",
"f  c #575758",
"g  c #585859",
"h  c #595859",
"j  c #58585A",
"k  c #59585A",
"l  c #5A5A5B",
"z  c #5B5B5C",
"x  c #5C5C5E",
"c  c #5D5C5E",
"v  c #5D5D5F",
"b  c #5B5B5C",
"n  c #5E5E60",
"m  c #5F5F61",
"M  c #605F61",
"N  c #616062",
"B  c #616162",
"V  c #616163",
"C  c #626263",
"Z  c #636364",
"A  c #636365",
"S  c #646364",
"D  c #646465",
"F  c #656566",
"G  c #666566",
"H  c #666667",
"J  c #676667",
"K  c #646466",
"L  c #676668",
"P  c #676768",
"I  c #68686A",
"U  c #69696A",
"Y  c #6A696B",
"T  c #6C6C6E",
"R  c #706F70",
"E  c gray44",
"W  c #707071",
"Q  c #737273",
"!  c #727274",
"~  c #737274",
"^  c #737374",
"/  c #747374",
"(  c #747475",
")  c #757576",
"_  c #767676",
"`  c #747476",
"'  c #78787A",
"]  c #7A7A7B",
"[  c #7B7B7D",
"{  c #7C7B7C",
"}  c #7D7C7D",
"|  c #7D7D7E",
" . c #7E7E7F",
".. c #7A7A7B",
"X. c #7E7E80",
"o. c #7F7F80",
"O. c #7F7F81",
"+. c #808081",
"@. c #818081",
"#. c gray51",
"$. c #828283",
"%. c #838384",
"&. c #848485",
"*. c #858586",
"=. c #868687",
"-. c #9A9A9B",
";. c #C0C0C0",
":. c #C8C8C8",
">. c gray79",
/* pixels */
"                                                                                                                                ",
"                                                                                                                                ",
"                                                                                                                                ",
"                                                                                                                                ",
"                                                                                                                                ",
"                                                                                                                                ",
"                                                                                                                                ",
"                                                                                                                                ",
"                                                                                                                                ",
"                                                                                                                                ",
"                                                                                                                                ",
"                                                                                                                                ",
"                                                                                                                                ",
"                                                                                                                                ",
"                                                                                                                                ",
"                                                                                                                                ",
"                                                                                                                                ",
"                                                                                            5 5 @.                              ",
"                                                                                          P o o o * 3 *.                        ",
"                                @.V , * ^                                               3 o # < : . . o : l |                   ",
"                    _ E E l - O . # # o &                                             p X =       : % o . . . % S               ",
"              _ p ; O . . . & 3 3     P % @                                         5 O :           V < o o o . O 3             ",
"        7 & O o . . o o . : o.            - -                   $ l             5 % O #                 : % 0 7 5 7 - 8         ",
"      3 . . O 1 2 = 3 - O                   * # p       ^ < F < + %         < < , U   F                   &           3 -       ",
"    @.. O , ^       F e -                   t % # # < < - o O O O # 1 z 4 :                               4             5 8     ",
"    : : [             8 U                             l O O O O O + O O + k                               U               3     ",
"                      |                               3 o o O O # = $ O + -                                                     ",
"                                                      3 o o + # < z < $ O *                                                 %.  ",
"                                                      7 O O % & 4 M 4 $ # * ^                                               -.>.",
"                                                        $ O # & : 8 1 # # & T                                                 ;.",
"                                                        & # o * > 8 = + + $ d                                                 >.",
"                                                        # 3 < # = > # O o :                                                     ",
"                                                        + O.F O # $ * = o r                                                     ",
"                                                      ^ &   8 & & & - 3 O o.                                                    ",
"                                                      7 :   3 # = = = r #                                                       ",
"                                                      > 5   < @ O + @ 9 &                                                       ",
"                                                      : V   * O X O > z *                                                       ",
"                                                      < *.  @ O : # 5   = o.                                                    ",
"                                                      >   P @ 5   4 6   2                                                       ",
"                                                      <   7 :     P 3   3                                                       ",
"                                                      :   : F     %.5   e                                                       ",
"                                                      = ^ *         3   5                                                       ",
"                                                      * ^ &         :   <                                                       ",
"                                                      *   ; [     *.3   ;                                                       ",
"                                                      &   R 5     d F   -                                                       ",
"                                                      <     >     8     -                                                       ",
"                                                      1     q V   5     3                                                       ",
"                                                      4     *.V   l     t                                                       ",
"                                                      3       F   |   E m                                                       ",
"                                                      3       c       V [                                                       ",
"                                                      m t     P       9                                                         ",
"                                                        -             1                                                         ",
"                                                        t           3 5                                                         ",
"                                                        c           z x                                                         ",
"                                                          F         5                                                           ",
"                                                                  ^ ..                                                          ",
"                                                                                                                                ",
"                                                                                                                                ",
"                                                                                                                                ",
"                                                                                                                                ",
"                                                                                                                                ",
"                                                                                                                                ",
"                                                                                                                                ",
"                                                                                                                                "
};
